<?xml version="1.0" encoding="utf-8"?>
<!-- Generator: Adobe Illustrator 23.1.0, SVG Export Plug-In . SVG Version: 6.00 Build 0)  -->
<svg version="1.1" id="Слой_1" xmlns="http://www.w3.org/2000/svg" xmlns:xlink="http://www.w3.org/1999/xlink" x="0px" y="0px"
	 viewBox="0 0 40 40" style="enable-background:new 0 0 40 40;" xml:space="preserve">
<style type="text/css">
	.st0{fill:#4D6B9A;}
	.st1{display:none;}
	.st2{display:inline;}
	.st3{fill:#FFFFFF;}
	.st4{display:inline;fill:#FFFFFF;}
</style>
<g>
	<rect x="0" class="st0" width="40" height="40"/>
</g>
<g class="st1">
	<g class="st2">
		<path class="st3" d="M24.64,8.81h-9.36c-3.51,0-6.36,2.85-6.36,6.36v9.36c0,3.51,2.85,6.36,6.36,6.36h9.36
			c3.51,0,6.36-2.85,6.36-6.36v-9.36C31,11.66,28.15,8.81,24.64,8.81z M28.75,24.52c0,2.26-1.84,4.11-4.11,4.11h-9.36
			c-2.26,0-4.11-1.84-4.11-4.11v-9.36c0-2.26,1.84-4.11,4.11-4.11h9.36c2.26,0,4.11,1.84,4.11,4.11V24.52z"/>
		<path class="st3" d="M19.96,14.72c-2.83,0-5.13,2.3-5.13,5.13c0,2.83,2.3,5.13,5.13,5.13s5.13-2.3,5.13-5.13
			C25.09,17.02,22.79,14.72,19.96,14.72z M19.96,22.61c-1.53,0-2.77-1.24-2.77-2.77c0-1.53,1.24-2.77,2.77-2.77
			c1.53,0,2.77,1.24,2.77,2.77C22.73,21.37,21.49,22.61,19.96,22.61z"/>
		<path class="st3" d="M25.71,12.5c-0.84,0-1.52,0.68-1.52,1.52c0,0.84,0.68,1.52,1.52,1.52c0.84,0,1.52-0.68,1.52-1.52
			C27.23,13.18,26.55,12.5,25.71,12.5z"/>
	</g>
</g>
<g id="Слой_2" class="st1">
	<path class="st4" d="M28.1,11H13.56c-2.61,0-4.73,2.12-4.73,4.73v8.53c0,2.61,2.12,4.73,4.73,4.73H28.1c2.61,0,4.73-2.12,4.73-4.73
		v-8.53C32.83,13.12,30.71,11,28.1,11z M17.87,23.95v-7.9c0-0.62,0.68-1.01,1.22-0.69l6.6,3.95c0.52,0.31,0.52,1.07,0,1.38
		l-6.6,3.95C18.55,24.96,17.87,24.57,17.87,23.95z"/>
</g>
<g id="Слой_3" class="st1">
	<path class="st4" d="M25.76,7.32l-3.62-0.09c-1.42-0.03-2.8,0.57-3.83,1.7c-1.03,1.13-1.6,2.64-1.6,4.26v3.86h-3.36
		c-0.14,0-0.25,0.13-0.25,0.28v4.85c0,0.16,0.11,0.28,0.25,0.28h3.36v12.27c0,0.16,0.11,0.28,0.25,0.28h4.46
		c0.14,0,0.25-0.13,0.25-0.28V22.45h3.39c0.13,0,0.23-0.1,0.25-0.24l0.56-4.85c0.01-0.08-0.01-0.16-0.06-0.22
		c-0.05-0.06-0.12-0.1-0.19-0.1h-3.95l0-2.45c0-0.01-0.09-1.19,0.46-1.87c0.26-0.31,0.6-0.47,1.07-0.47h2.56
		c0.14,0,0.25-0.13,0.25-0.28V7.6C26,7.44,25.89,7.32,25.76,7.32z"/>
</g>
<g id="Слой_4">
	<g>
		<path class="st3" d="M33.59,27.78c-0.16,0.38-0.46,0.56-0.85,0.61c-0.27,0.04-0.54,0.05-0.8,0.05c-1.02,0.01-2.05,0-3.07,0.06
			c-1.08,0.06-1.93-0.38-2.68-1.1c-0.6-0.57-1.1-1.23-1.67-1.83c-0.23-0.24-0.48-0.46-0.77-0.63c-0.33-0.19-0.6-0.17-0.89,0.09
			c-0.39,0.35-0.52,0.82-0.62,1.31c-0.07,0.33-0.05,0.66-0.07,0.99c-0.03,0.69-0.32,1.05-0.99,1.07c-0.98,0.03-1.97,0.09-2.96-0.05
			c-1.31-0.19-2.47-0.76-3.59-1.45c-1.54-0.96-2.67-2.32-3.72-3.76c-1.95-2.66-3.47-5.57-4.8-8.58c-0.04-0.1-0.08-0.2-0.11-0.3
			c-0.09-0.39,0.07-0.65,0.45-0.76c0.16-0.04,0.32-0.06,0.48-0.06c1.19-0.01,2.39,0.01,3.58-0.03c0.75-0.02,1.14,0.24,1.43,0.94
			c0.66,1.55,1.44,3.05,2.29,4.51c0.3,0.5,0.64,0.97,1.12,1.33c0.14,0.1,0.28,0.19,0.45,0.23c0.28,0.06,0.47-0.03,0.6-0.27
			c0.21-0.37,0.26-0.77,0.32-1.19c0.16-1.19,0.15-2.37-0.02-3.56c-0.12-0.8-0.51-1.32-1.34-1.46c-0.27-0.05-0.3-0.17-0.12-0.39
			c0.28-0.33,0.63-0.56,1.07-0.63c1.6-0.25,3.2-0.28,4.79-0.02c0.69,0.11,0.96,0.43,1.07,1.13c0.06,0.41,0.05,0.82,0.04,1.24
			c-0.03,1.18-0.06,2.37-0.09,3.55c-0.01,0.3,0.03,0.59,0.1,0.88c0.03,0.11,0.07,0.22,0.13,0.32c0.23,0.41,0.57,0.47,0.93,0.17
			c0.5-0.42,0.91-0.92,1.27-1.46c0.93-1.39,1.73-2.85,2.35-4.41c0.05-0.12,0.1-0.23,0.15-0.35c0.17-0.36,0.45-0.52,0.84-0.52
			c1.56-0.01,3.12-0.02,4.68-0.02c0.39,0,0.77,0.07,1,0.46c0,0.2,0,0.39,0,0.59c-0.37,1.1-1.02,2.05-1.68,2.98
			c-0.79,1.11-1.67,2.15-2.43,3.28c-0.51,0.77-0.47,1.2,0.16,1.86c0.83,0.87,1.76,1.64,2.54,2.55c0.57,0.66,1.17,1.31,1.41,2.19
			C33.59,27.49,33.59,27.64,33.59,27.78z"/>
	</g>
</g>
</svg>
