<?xml version="1.0" encoding="utf-8"?>
<!-- Generator: Adobe Illustrator 23.1.0, SVG Export Plug-In . SVG Version: 6.00 Build 0)  -->
<svg version="1.1" id="Слой_1" xmlns="http://www.w3.org/2000/svg" xmlns:xlink="http://www.w3.org/1999/xlink" x="0px" y="0px"
	 viewBox="0 0 40 40" style="enable-background:new 0 0 40 40;" xml:space="preserve">
<style type="text/css">
	.st0{fill:#4D6B9A;}
	.st1{display:none;}
	.st2{display:inline;}
	.st3{fill:#FFFFFF;}
	.st4{display:inline;fill:#FFFFFF;}
</style>
<g>
	<rect x="0" class="st0" width="40" height="40"/>
</g>
<g class="st1">
	<g class="st2">
		<path class="st3" d="M24.64,8.81h-9.36c-3.51,0-6.36,2.85-6.36,6.36v9.36c0,3.51,2.85,6.36,6.36,6.36h9.36
			c3.51,0,6.36-2.85,6.36-6.36v-9.36C31,11.66,28.15,8.81,24.64,8.81z M28.75,24.52c0,2.26-1.84,4.11-4.11,4.11h-9.36
			c-2.26,0-4.11-1.84-4.11-4.11v-9.36c0-2.26,1.84-4.11,4.11-4.11h9.36c2.26,0,4.11,1.84,4.11,4.11V24.52z"/>
		<path class="st3" d="M19.96,14.72c-2.83,0-5.13,2.3-5.13,5.13c0,2.83,2.3,5.13,5.13,5.13s5.13-2.3,5.13-5.13
			C25.09,17.02,22.79,14.72,19.96,14.72z M19.96,22.61c-1.53,0-2.77-1.24-2.77-2.77c0-1.53,1.24-2.77,2.77-2.77
			c1.53,0,2.77,1.24,2.77,2.77C22.73,21.37,21.49,22.61,19.96,22.61z"/>
		<path class="st3" d="M25.71,12.5c-0.84,0-1.52,0.68-1.52,1.52c0,0.84,0.68,1.52,1.52,1.52c0.84,0,1.52-0.68,1.52-1.52
			C27.23,13.18,26.55,12.5,25.71,12.5z"/>
	</g>
</g>
<g id="Слой_2" class="st1">
	<path class="st4" d="M28.1,11H13.56c-2.61,0-4.73,2.12-4.73,4.73v8.53c0,2.61,2.12,4.73,4.73,4.73H28.1c2.61,0,4.73-2.12,4.73-4.73
		v-8.53C32.83,13.12,30.71,11,28.1,11z M17.87,23.95v-7.9c0-0.62,0.68-1.01,1.22-0.69l6.6,3.95c0.52,0.31,0.52,1.07,0,1.38
		l-6.6,3.95C18.55,24.96,17.87,24.57,17.87,23.95z"/>
</g>
<g id="Слой_3">
	<path class="st3" d="M25.76,7.32l-3.62-0.09c-1.42-0.03-2.8,0.57-3.83,1.7c-1.03,1.13-1.6,2.64-1.6,4.26v3.86h-3.36
		c-0.14,0-0.25,0.13-0.25,0.28v4.85c0,0.16,0.11,0.28,0.25,0.28h3.36v12.27c0,0.16,0.11,0.28,0.25,0.28h4.46
		c0.14,0,0.25-0.13,0.25-0.28V22.45h3.39c0.13,0,0.23-0.1,0.25-0.24l0.56-4.85c0.01-0.08-0.01-0.16-0.06-0.22
		c-0.05-0.06-0.12-0.1-0.19-0.1h-3.95l0-2.45c0-0.01-0.09-1.19,0.46-1.87c0.26-0.31,0.6-0.47,1.07-0.47h2.56
		c0.14,0,0.25-0.13,0.25-0.28V7.6C26,7.44,25.89,7.32,25.76,7.32z"/>
</g>
</svg>
