<?xml version="1.0" encoding="utf-8"?>
<!-- Generator: Adobe Illustrator 23.1.0, SVG Export Plug-In . SVG Version: 6.00 Build 0)  -->
<svg version="1.1" id="Слой_1" xmlns="http://www.w3.org/2000/svg" xmlns:xlink="http://www.w3.org/1999/xlink" x="0px" y="0px"
	 viewBox="0 0 40 40" style="enable-background:new 0 0 40 40;" xml:space="preserve">
<style type="text/css">
	.st0{fill:#4D6B9A;}
	.st1{fill:#FFFFFF;}
</style>
<g>
	<rect x="0" class="st0" width="40" height="40"/>
</g>
<g>
	<g>
		<path class="st1" d="M24.64,8.81h-9.36c-3.51,0-6.36,2.85-6.36,6.36v9.36c0,3.51,2.85,6.36,6.36,6.36h9.36
			c3.51,0,6.36-2.85,6.36-6.36v-9.36C31,11.66,28.15,8.81,24.64,8.81z M28.75,24.52c0,2.26-1.84,4.11-4.11,4.11h-9.36
			c-2.26,0-4.11-1.84-4.11-4.11v-9.36c0-2.26,1.84-4.11,4.11-4.11h9.36c2.26,0,4.11,1.84,4.11,4.11V24.52z"/>
		<path class="st1" d="M19.96,14.72c-2.83,0-5.13,2.3-5.13,5.13c0,2.83,2.3,5.13,5.13,5.13s5.13-2.3,5.13-5.13
			C25.09,17.02,22.79,14.72,19.96,14.72z M19.96,22.61c-1.53,0-2.77-1.24-2.77-2.77c0-1.53,1.24-2.77,2.77-2.77
			c1.53,0,2.77,1.24,2.77,2.77C22.73,21.37,21.49,22.61,19.96,22.61z"/>
		<path class="st1" d="M25.71,12.5c-0.84,0-1.52,0.68-1.52,1.52c0,0.84,0.68,1.52,1.52,1.52c0.84,0,1.52-0.68,1.52-1.52
			C27.23,13.18,26.55,12.5,25.71,12.5z"/>
	</g>
</g>
</svg>
