<?xml version="1.0" encoding="utf-8"?>
<!-- Generator: Adobe Illustrator 23.1.0, SVG Export Plug-In . SVG Version: 6.00 Build 0)  -->
<svg version="1.1" xmlns="http://www.w3.org/2000/svg" xmlns:xlink="http://www.w3.org/1999/xlink" x="0px" y="0px"
	 viewBox="0 0 178.43 53" style="enable-background:new 0 0 178.43 53;" xml:space="preserve">
<style type="text/css">
	.st0{display:none;opacity:0.4;}
	.st1{fill:#4D6B9A;}
</style>
<g id="Слой_1" class="st0">
</g>
<g id="Слой_6">
	<path class="st1" d="M45.06,3.77l-7.05,7.04H8.62v33.84h2.38l11.87-11.81v3.73l-11.11,11.1H5.67V8.82h14.74V3.79H0.75v49.2h12.53
		l9.57-9.52v9.52h4.93V27.91l17.19-17.16v42.24h4.91V3.77H45.06z M22.86,25.94l-9.33,9.31V16.03h9.33V25.94z M27.79,21.01v-4.99
		h4.99L27.79,21.01z"/>
	<rect x="37.61" y="26.87" class="st1" width="4.91" height="26.13"/>
	<rect x="30.24" y="26.87" class="st1" width="4.91" height="26.13"/>
</g>
<g id="Слой_3">
	<g>
		<path class="st1" d="M68.5,13.78c-0.67,0.75-2.11,1.29-3.62,1.29c-3.45,0-5.83-2.29-5.83-5.75c0-3.19,1.98-5.75,5.81-5.75
			c1.48,0,2.73,0.51,3.4,1.16l-1.13,1.91c-0.6-0.37-1.22-0.68-2.27-0.68c-1.71,0-3.11,1.17-3.11,3.37c0,1.97,1.37,3.37,3.37,3.37
			c0.79,0,1.67-0.25,2.41-0.81L68.5,13.78z"/>
		<path class="st1" d="M68.97,3.77h9.21v2.38h-3.33v8.73h-2.54V6.15h-3.33V3.77z"/>
		<path class="st1" d="M79.77,14.88V3.77c0.62,0,2.54-0.03,3.4-0.03c3.38,0,4.49,1.76,4.49,3.68c0,1.98-1.54,3.73-4.11,3.73
			c-0.24,0-0.84,0-1.24-0.05v3.78H79.77z M82.31,6.15v2.54c0.37,0.05,0.79,0.08,1.16,0.08c0.67,0,1.49-0.29,1.49-1.37
			c0-0.98-0.64-1.29-1.54-1.29C83.09,6.12,82.84,6.13,82.31,6.15z"/>
		<path class="st1" d="M94.84,3.58c3.38,0,5.91,2.21,5.91,5.75c0,3.37-2.52,5.75-5.91,5.75c-3.38,0-5.91-2.21-5.91-5.75
			C88.93,6.1,91.3,3.58,94.84,3.58z M94.84,12.69c2.11,0,3.21-1.49,3.21-3.37c0-2.03-1.41-3.37-3.21-3.37
			c-1.84,0-3.21,1.33-3.21,3.37C91.63,11.23,93.06,12.69,94.84,12.69z"/>
		<path class="st1" d="M102.81,14.88V3.77h2.54v6.91l4.92-6.91h2.22v11.11h-2.54V7.97l-4.92,6.91H102.81z M106.94,0.91
			c0,0.6,0.29,0.79,0.98,0.79c0.6,0,0.92-0.11,0.92-0.79h2.38c0.03,1.54-1.32,2.54-3.3,2.54c-2.14,0-3.37-1.02-3.37-2.54H106.94z"/>
		<path class="st1" d="M58.57,22.82h9.21v2.38h-3.33v8.73h-2.54V25.2h-3.33V22.82z"/>
		<path class="st1" d="M69.37,22.82h6.59v2.38h-4.05v1.95h3.57v2.38h-3.57v2.02h4.21v2.38h-6.75V22.82z"/>
		<path class="st1" d="M84.07,28.27l3.7,5.67h-2.99l-2.38-3.73l-2.35,3.73h-2.99l3.7-5.67l-3.53-5.45h2.99l2.25,3.57l2.16-3.57h2.99
			L84.07,28.27z"/>
		<path class="st1" d="M59.84,52.99V41.87h2.54v6.91l4.92-6.91h2.22v11.11h-2.54v-6.91l-4.92,6.91H59.84z"/>
		<path class="st1" d="M78.98,48.51h-4.05v4.48h-2.54V41.87h2.54v4.26h4.05v-4.26h2.54v11.11h-2.54V48.51z"/>
		<path class="st1" d="M83.12,41.87h2.92l3.37,4.86v-4.86h2.54v4.86l3.37-4.86h2.92l-3.86,5.3l4.03,5.81h-2.92l-3.54-5.32v5.32
			h-2.54v-5.32l-3.54,5.32h-2.92l4.03-5.8L83.12,41.87z"/>
		<path class="st1" d="M99.84,52.99V41.87h2.54v6.91l4.92-6.91h2.22v11.11h-2.54v-6.91l-4.92,6.91H99.84z"/>
		<path class="st1" d="M118.97,48.51h-4.05v4.48h-2.54V41.87h2.54v4.26h4.05v-4.26h2.54v11.11h-2.54V48.51z"/>
		<path class="st1" d="M124.37,52.99V41.87h2.54v6.91l4.92-6.91h2.22v11.11h-2.54v-6.91l-4.92,6.91H124.37z"/>
		<path class="st1" d="M136.92,52.99V41.87c0.62,0,2.54-0.03,3.4-0.03c3.38,0,4.49,1.76,4.49,3.68c0,1.98-1.54,3.73-4.11,3.73
			c-0.24,0-0.84,0-1.24-0.05v3.78H136.92z M139.46,44.25v2.54c0.37,0.05,0.79,0.08,1.16,0.08c0.67,0,1.49-0.29,1.49-1.37
			c0-0.98-0.64-1.29-1.54-1.29C140.23,44.22,139.98,44.24,139.46,44.25z"/>
		<path class="st1" d="M146.87,52.99V41.87h2.54v6.91l4.92-6.91h2.22v11.11h-2.54v-6.91l-4.92,6.91H146.87z"/>
		<path class="st1" d="M166,48.51h-4.05v4.48h-2.54V41.87h2.54v4.26H166v-4.26h2.54v11.11H166V48.51z"/>
		<path class="st1" d="M171.4,41.87h6.35v2.38h-3.81v8.73h-2.54V41.87z"/>
	</g>
</g>
</svg>
